0
SECTION
2
HEADER
9
$INSUNITS
70
4
9
$ACADVER
1
AC1014
9
$HANDSEED
5
FFFF
0
ENDSEC
0
SECTION
2
TABLES
0
TABLE
2
VPORT
5
8
100
AcDbSymbolTable
0
ENDTAB
0
TABLE
2
LTYPE
5
5
100
AcDbSymbolTable
0
LTYPE
5
14
100
AcDbSymbolTableRecord
100
AcDbLinetypeTableRecord
2
BYBLOCK
70
0
0
LTYPE
5
15
100
AcDbSymbolTableRecord
100
AcDbLinetypeTableRecord
2
BYLAYER
70
0
0
ENDTAB
0
TABLE
2
LAYER
5
2
100
AcDbSymbolTable
70
2
0
LAYER
5
50
100
AcDbSymbolTableRecord
100
AcDbLayerTableRecord
2
0
70
0
6
CONTINUOUS
0
ENDTAB
0
TABLE
2
STYLE
5
3
100
AcDbSymbolTable
70
1
0
STYLE
5
11
100
AcDbSymbolTableRecord
100
AcDbTextStyleTableRecord
2
STANDARD
70
0
0
ENDTAB
0
TABLE
2
VIEW
5
6
100
AcDbSymbolTable
70
0
0
ENDTAB
0
TABLE
2
UCS
5
7
100
AcDbSymbolTable
70
0
0
ENDTAB
0
TABLE
2
APPID
5
9
100
AcDbSymbolTable
70
2
0
APPID
5
12
100
AcDbSymbolTableRecord
100
AcDbRegAppTableRecord
2
ACAD
70
0
0
ENDTAB
0
TABLE
2
DIMSTYLE
5
A
100
AcDbSymbolTable
70
1
0
ENDTAB
0
TABLE
2
BLOCK_RECORD
5
1
100
AcDbSymbolTable
70
1
0
BLOCK_RECORD
5
1F
100
AcDbSymbolTableRecord
100
AcDbBlockTableRecord
2
*MODEL_SPACE
0
BLOCK_RECORD
5
1B
100
AcDbSymbolTableRecord
100
AcDbBlockTableRecord
2
*PAPER_SPACE
0
ENDTAB
0
ENDSEC
0
SECTION
2
BLOCKS
0
BLOCK
5
20
100
AcDbEntity
100
AcDbBlockBegin
2
*MODEL_SPACE
0
ENDBLK
5
21
100
AcDbEntity
100
AcDbBlockEnd
0
BLOCK
5
1C
100
AcDbEntity
100
AcDbBlockBegin
2
*PAPER_SPACE
0
ENDBLK
5
1D
100
AcDbEntity
100
AcDbBlockEnd
0
ENDSEC
0
SECTION
2
ENTITIES
0
LWPOLYLINE
5
100
100
AcDbEntity
8
0
100
AcDbPolyline
90
20
70
1
43
0.0
10
443.94448724536016
20
150.00000000000003
10
-143.94448724536008
20
150
42
0.14806873911202656
10
-155.03849116986464
20
146.64100588675691
10
-174.96150883013527
20
133.35899411324317
42
-0.14806873911202711
10
-186.05551275463981
20
130
10
-200
20
130
10
-200
20
-130
10
-186.05551275463981
20
-130.00000000000003
42
-0.14806873911202711
10
-174.96150883013527
20
-133.35899411324317
10
-155.03849116986467
20
-146.64100588675689
42
0.14806873911202509
10
-143.94448724536005
20
-150
10
443.94448724536016
20
-150.00000000000003
42
0.14806873911201904
10
455.03849116986481
20
-146.64100588675683
10
474.96150883013524
20
-133.35899411324317
42
-0.14806873911202825
10
486.05551275463984
20
-130
10
500
20
-130
10
500
20
130
10
486.05551275463972
20
130
42
-0.14806873911203039
10
474.96150883013519
20
133.35899411324323
10
455.03849116986481
20
146.64100588675683
42
0.14806873911201904
0
LWPOLYLINE
5
101
100
AcDbEntity
8
0
100
AcDbPolyline
90
4
70
1
43
0.0
10
-109.99999848753217
20
0.5000000074505806
10
-109.99999848753217
20
-56.499999992549419
10
-52.99999848753216
20
-56.499999992549419
10
-52.99999848753216
20
0.5000000074505806
0
LWPOLYLINE
5
102
100
AcDbEntity
8
0
100
AcDbPolyline
90
4
70
1
43
0.0
10
16.000001512467851
20
-56.499999992549419
10
16.000001512467854
20
0.5000000074505806
10
-40.999998487532153
20
0.5000000074505806
10
-40.999998487532153
20
-56.499999992549419
0
CIRCLE
5
103
100
AcDbEntity
8
0
100
AcDbCircle
10
490
20
0
30
0
40
1.5000000000000002
210
0
220
0
230
1
0
LWPOLYLINE
5
104
100
AcDbEntity
8
0
100
AcDbPolyline
90
4
70
1
43
0.0
10
272.00000151246786
20
-56.499999992549419
10
272.00000151246786
20
0.5000000074505806
10
215.00000151246786
20
0.5000000074505806
10
215.00000151246786
20
-56.499999992549419
0
CIRCLE
5
105
100
AcDbEntity
8
0
100
AcDbCircle
10
-190
20
0
30
0
40
1.4999999999999871
210
0
220
0
230
1
0
LWPOLYLINE
5
106
100
AcDbEntity
8
0
100
AcDbPolyline
90
4
70
1
43
0.0
10
28.000001512467847
20
0.5000000074505806
10
85.000001512467861
20
0.5000000074505806
10
85.000001512467861
20
-56.499999992549419
10
28.000001512467851
20
-56.499999992549419
0
LWPOLYLINE
5
107
100
AcDbEntity
8
0
100
AcDbPolyline
90
4
70
1
43
0.0
10
-50
20
90
10
-80
20
90
10
-80
20
60
10
-50
20
60
0
LWPOLYLINE
5
108
100
AcDbEntity
8
0
100
AcDbPolyline
90
4
70
1
43
0.0
10
410.00000151246786
20
-56.499999992549419
10
353.00000151246786
20
-56.499999992549419
10
353.00000151246786
20
0.5000000074505806
10
410.00000151246786
20
0.5000000074505806
0
LWPOLYLINE
5
109
100
AcDbEntity
8
0
100
AcDbPolyline
90
4
70
1
43
0.0
10
350
20
60
10
380
20
60
10
380
20
90
10
350
20
90
0
LWPOLYLINE
5
110
100
AcDbEntity
8
0
100
AcDbPolyline
90
4
70
1
43
0.0
10
341.0000015124678
20
-56.499999992549419
10
341.0000015124678
20
0.5000000074505806
10
284.00000151246786
20
0.5000000074505806
10
284.00000151246786
20
-56.499999992549419
0
LWPOLYLINE
5
111
100
AcDbEntity
8
0
100
AcDbPolyline
90
4
70
1
43
0.0
10
190
20
50
10
110
20
50
42
0.99999999999999989
10
110
20
30
10
190
20
30
42
0.99999999999999989
0
CIRCLE
5
112
100
AcDbEntity
8
0
100
AcDbCircle
10
150
20
140
30
0
40
1.5000000000000036
210
0
220
0
230
1
0
CIRCLE
5
113
100
AcDbEntity
8
0
100
AcDbCircle
10
150
20
-140
30
0
40
1.5000000000000031
210
0
220
0
230
1
0
ENDSEC
0
SECTION
2
OBJECTS
0
DICTIONARY
5
C
100
AcDbDictionary
3
ACAD_GROUP
350
D
3
ACAD_MLINESTYLE
350
17
0
DICTIONARY
5
D
100
AcDbDictionary
0
DICTIONARY
5
1A
330
C
100
AcDbDictionary
0
DICTIONARY
5
17
100
AcDbDictionary
0
ENDSEC
0
EOF
